<?xml version='1.0' encoding='utf-8'?>
<!DOCTYPE svg PUBLIC '-//W3C//DTD SVG 1.1//EN' 'http://www.w3.org/Graphics/SVG/1.1/DTD/svg11.dtd'>
<svg version="1.1" xmlns="http://www.w3.org/2000/svg" viewBox="0 0 512 512" xmlns:xlink="http://www.w3.org/1999/xlink" enable-background="new 0 0 512 512">
  <g>
    <g>
      <path d="m18.9,496.9c-9.2-6.5-10.7-19.7-3.9-28.6l157-205.7h-140.7c-18.7,0-25.9-20.3-15.5-33.8l182-210.8c7.4-8.5 20.3-9.5 28.8-2.1 8.5,7.4 9.5,20.3 2.1,28.8l-152.8,177.1h137.3c18.8,0 25.3,22.3 16.2,32.8l-181.8,238.5c-4.1,5.2-16.4,12.4-28.7,3.8z"/>
      <path d="m286.1,496.9c-9.2-6.5-10.7-19.7-3.9-28.6l156.9-205.7h-140.7c-18.7,0-25.9-20.3-15.5-33.8l182-210.8c7.4-8.5 20.3-9.5 28.8-2.1 8.5,7.4 9.5,20.3 2.1,28.8l-152.8,177.1h137.3c18.8,0 25.3,22.3 16.2,32.8l-181.8,238.5c-4,5.2-16.4,12.4-28.6,3.8z"/>
    </g>
  </g>
</svg>
